<svg xmlns="http://www.w3.org/2000/svg" xmlns:xlink="http://www.w3.org/1999/xlink" width="1080" zoomAndPan="magnify" viewBox="0 0 810 809.999993" height="1080" preserveAspectRatio="xMidYMid meet" version="1.0"><path fill="#ffffff" d="M 588.144531 609.257812 L 605.679688 619.375 L 623.175781 609.257812 L 623.175781 61.554688 L 690.472656 61.554688 L 690.472656 615.203125 L 605.679688 664.207031 L 520.847656 615.203125 L 520.847656 61.554688 L 588.144531 61.554688 Z M 588.144531 609.257812 " fill-opacity="1" fill-rule="nonzero"/><path fill="#ffffff" d="M 258.507812 372.664062 L 251.207031 366.597656 L 258.507812 360.527344 C 277.945312 344.300781 289.289062 320.480469 289.289062 295.09375 L 289.289062 62.046875 L 221.746094 62.046875 L 221.746094 324.113281 C 221.746094 333.652344 213.660156 341.742188 204.128906 341.742188 L 186.550781 341.742188 L 186.550781 61.554688 L 118.964844 61.554688 L 118.964844 615.203125 L 186.550781 654.21875 L 186.550781 376.257812 L 204.128906 376.257812 C 213.660156 376.257812 221.746094 384.347656 221.746094 393.882812 L 221.746094 674.570312 L 289.289062 713.582031 L 289.289062 438.097656 C 289.289062 412.710938 277.945312 388.890625 258.507812 372.664062 Z M 258.507812 372.664062 " fill-opacity="1" fill-rule="nonzero"/><path fill="#ffffff" d="M 392.359375 728.28125 L 392.359375 728.238281 L 387.328125 725.347656 L 387.328125 680.597656 L 387.285156 680.226562 L 387.328125 680.265625 L 387.328125 61.59375 L 320.03125 61.59375 L 320.03125 731.292969 L 404.863281 780.253906 L 443.648438 757.878906 Z M 392.359375 728.28125 " fill-opacity="1" fill-rule="nonzero"/><path fill="#ffffff" d="M 482.679688 735.339844 L 489.65625 731.292969 L 489.65625 61.59375 L 422.398438 61.59375 L 422.398438 700.496094 Z M 482.679688 735.339844 " fill-opacity="1" fill-rule="nonzero"/></svg>