<svg xmlns="http://www.w3.org/2000/svg" xmlns:xlink="http://www.w3.org/1999/xlink" width="1080" zoomAndPan="magnify" viewBox="0 0 810 809.999993" height="1080" preserveAspectRatio="xMidYMid meet" version="1.0"><defs><clipPath id="1b98cdb507"><path d="M 45.660156 0 L 764.160156 0 L 764.160156 810 L 45.660156 810 Z M 45.660156 0 " clip-rule="nonzero"/></clipPath></defs><g clip-path="url(#1b98cdb507)"><path fill="#ffffff" d="M 45.660156 -21.875 L 764.160156 -21.875 L 764.160156 1062.457031 L 45.660156 1062.457031 Z M 45.660156 -21.875 " fill-opacity="1" fill-rule="nonzero"/></g><path fill="#000000" d="M 594.363281 607.316406 L 612.484375 617.765625 L 630.566406 607.316406 L 630.566406 41.613281 L 700.113281 41.613281 L 700.113281 613.457031 L 612.484375 664.070312 L 524.816406 613.457031 L 524.816406 41.613281 L 594.363281 41.613281 Z M 594.363281 607.316406 " fill-opacity="1" fill-rule="nonzero"/><path fill="#000000" d="M 253.703125 362.949219 L 246.15625 356.679688 L 253.703125 350.414062 C 273.789062 333.65625 285.515625 309.050781 285.515625 282.828125 L 285.515625 42.125 L 215.710938 42.125 L 215.710938 312.804688 C 215.710938 322.652344 207.355469 331.011719 197.503906 331.011719 L 179.339844 331.011719 L 179.339844 41.613281 L 109.492188 41.613281 L 109.492188 613.457031 L 179.339844 653.753906 L 179.339844 366.660156 L 197.503906 366.660156 C 207.355469 366.660156 215.710938 375.015625 215.710938 384.867188 L 215.710938 674.773438 L 285.515625 715.070312 L 285.515625 430.53125 C 285.515625 404.308594 273.789062 379.707031 253.703125 362.949219 Z M 253.703125 362.949219 " fill-opacity="1" fill-rule="nonzero"/><path fill="#000000" d="M 392.03125 730.25 L 392.03125 730.207031 L 386.828125 727.222656 L 386.828125 681 L 386.785156 680.617188 L 386.828125 680.660156 L 386.828125 41.65625 L 317.28125 41.65625 L 317.28125 733.359375 L 404.953125 783.933594 L 445.035156 760.820312 Z M 392.03125 730.25 " fill-opacity="1" fill-rule="nonzero"/><path fill="#000000" d="M 485.371094 737.539062 L 492.578125 733.359375 L 492.578125 41.65625 L 423.074219 41.65625 L 423.074219 701.550781 Z M 485.371094 737.539062 " fill-opacity="1" fill-rule="nonzero"/></svg>